<svg xmlns="http://www.w3.org/2000/svg" width="72.34" height="52.357" viewBox="0 0 72.34 52.357">
  <g id="logo" transform="translate(1.938 0.5)">
    <rect id="長方形_4071" data-name="長方形 4071" width="4.944" height="12.882" transform="translate(0.001 28.277)" fill="#fff"/>
    <rect id="長方形_4072" data-name="長方形 4072" width="4.945" height="12.882" transform="translate(12.704 28.276)" fill="#fff"/>
    <rect id="長方形_4073" data-name="長方形 4073" width="4.945" height="12.882" transform="translate(25.408 28.276)" fill="#fff"/>
    <rect id="長方形_4074" data-name="長方形 4074" width="4.945" height="12.882" transform="translate(38.112 28.276)" fill="#fff"/>
    <rect id="長方形_4075" data-name="長方形 4075" width="4.946" height="12.882" transform="translate(50.818 28.276)" fill="#fff"/>
    <rect id="長方形_4076" data-name="長方形 4076" width="4.945" height="12.882" transform="translate(63.524 28.277)" fill="#fff"/>
    <path id="中マド_1" data-name="中マド 1" d="M37.059,10.1l-5.023,0L18.559,2.648V10.1h-2.5V1.265L14.233.257,12.41,1.265V10.1h-2.5V2.648L-3.567,10.1H-8.591L11.722-1.131,8.529-2.9-14.977,10.1H-20L6.016-4.283,2.823-6.049,3.991-8.181,8.529-5.672l3.192-1.765L5.473-10.889,6.642-13.02l3.265,1.8V-15h2.5v5.169l1.823,1.006,1.825-1.008V-15h2.5v3.784l3.267-1.8,1.167,2.131L16.746-7.437l3.192,1.765,4.54-2.509,1.166,2.132L22.451-4.283,48.464,10.093l-5.02,0L19.939-2.9,16.746-1.131,37.059,10.1ZM14.233-6.048,11.041-4.284,14.233-2.52l3.192-1.764Z" transform="translate(20 15)" fill="#fff" stroke="rgba(0,0,0,0)" stroke-miterlimit="10" stroke-width="1"/>
    <g id="グループ_869" data-name="グループ 869" transform="translate(0 48.138)">
      <path id="パス_404" data-name="パス 404" d="M3.972,52.66l-.023-1.839c-.007-.48-.138-.622-.708-.722v-.076H4.618V50.1c-.348.044-.414.236-.454.564a26.8,26.8,0,0,0-.02,2.87l-.066.015c-.808-.954-1.7-1.838-2.558-2.755v.928c0,1.25-.028,1.509.7,1.655v.074H.714v-.074c.681-.07.655-.535.655-1.68v-.757c0-.5-.08-.7-.72-.842v-.076H1.48Z" transform="translate(-0.649 -49.831)" fill="#fff"/>
      <path id="パス_405" data-name="パス 405" d="M5.833,52.008a4.845,4.845,0,0,0-.309,1.02c0,.307.349.307.575.343v.074H4.719v-.074c.445-.122.493-.223.649-.615l.571-1.487.3-.822c.044-.131.11-.253.055-.349a.938.938,0,0,0,.368-.273L7.775,52.78c.135.367.22.513.625.59v.074H6.917v-.074c.177-.042.387-.1.387-.323a4.709,4.709,0,0,0-.322-1.041Zm.558-1.543-.473,1.312h1Z" transform="translate(-0.787 -49.824)" fill="#fff"/>
      <path id="パス_406" data-name="パス 406" d="M11.413,49.86h.041l.071.945-.071.016c-.178-.627-.455-.651-1.035-.651h-.3V52.5c0,.625.03.792.706.872v.074H8.965v-.074c.676-.08.706-.247.706-.872V50.17h-.3c-.58,0-.856.024-1.033.651L8.265,50.8l.071-.945h.04l.051.045a.322.322,0,0,0,.312.113H11.05a.321.321,0,0,0,.311-.113Z" transform="translate(-0.907 -49.825)" fill="#fff"/>
      <path id="パス_407" data-name="パス 407" d="M12.964,52.627c.015.52.02.671.626.751v.074h-1.7v-.074c.607-.08.612-.231.627-.751V50.85c-.015-.519-.02-.671-.627-.751v-.075h1.7V50.1c-.606.08-.611.232-.626.751Z" transform="translate(-1.03 -49.831)" fill="#fff"/>
      <path id="パス_408" data-name="パス 408" d="M17.791,51.737a1.726,1.726,0,0,1-1.844,1.775,1.777,1.777,0,1,1-.007-3.552,1.7,1.7,0,0,1,1.851,1.777m-3.107-.128c0,.783.415,1.782,1.323,1.782.832,0,1.2-.847,1.2-1.569-.014-.892-.533-1.74-1.305-1.74-.868,0-1.216.848-1.216,1.527" transform="translate(-1.104 -49.829)" fill="#fff"/>
      <path id="パス_409" data-name="パス 409" d="M21.614,52.66l-.026-1.839c0-.48-.136-.622-.706-.722v-.076h1.377V50.1c-.347.044-.413.236-.453.564a27.547,27.547,0,0,0-.021,2.87l-.065.015c-.807-.954-1.706-1.838-2.558-2.755v.928c0,1.25-.029,1.509.7,1.655v.074H18.354v-.074c.682-.07.657-.535.657-1.68v-.757c0-.5-.08-.7-.722-.842v-.076h.832Z" transform="translate(-1.246 -49.831)" fill="#fff"/>
      <path id="パス_410" data-name="パス 410" d="M23.472,52.008a4.832,4.832,0,0,0-.306,1.02c0,.307.347.307.574.343v.074H22.358v-.074c.448-.122.494-.223.65-.615l.57-1.487.3-.822c.044-.131.11-.253.055-.349a.938.938,0,0,0,.368-.273l1.109,2.956c.136.367.223.513.625.59v.074H24.557v-.074c.177-.042.387-.1.387-.323a4.578,4.578,0,0,0-.324-1.041Zm.56-1.543-.474,1.312h1Z" transform="translate(-1.384 -49.824)" fill="#fff"/>
      <path id="パス_411" data-name="パス 411" d="M26.2,53.377c.6-.08.61-.232.625-.751V50.849c-.015-.518-.021-.671-.625-.751v-.076H27.9V50.1c-.6.08-.626.233-.626.751v1.656a2.536,2.536,0,0,0,.076.76l.615.046c.766.056.894-.182,1.282-.828l.065.031-.287.938H26.2Z" transform="translate(-1.514 -49.831)" fill="#fff"/>
      <path id="パス_412" data-name="パス 412" d="M31.831,52.008a4.841,4.841,0,0,0-.308,1.02c0,.307.347.307.575.343v.074H30.716v-.074c.449-.122.495-.223.65-.615l.569-1.487.3-.822c.045-.131.112-.253.057-.349a.942.942,0,0,0,.367-.273l1.11,2.956c.135.367.221.513.624.59v.074H32.915v-.074c.177-.042.388-.1.388-.323a4.762,4.762,0,0,0-.322-1.041Zm.559-1.543-.474,1.312h1Z" transform="translate(-1.666 -49.824)" fill="#fff"/>
      <path id="パス_413" data-name="パス 413" d="M35.636,52.627c.014.52.02.671.625.751v.074H34.566v-.074c.606-.08.61-.231.626-.751V50.85c-.016-.519-.02-.671-.626-.751v-.075h1.695V50.1c-.6.08-.611.232-.625.751Z" transform="translate(-1.797 -49.831)" fill="#fff"/>
      <path id="パス_414" data-name="パス 414" d="M39.9,52.66l-.025-1.839c-.006-.48-.137-.622-.708-.722v-.076h1.38V50.1c-.35.044-.415.236-.456.564a27.376,27.376,0,0,0-.019,2.87L40,53.549c-.807-.954-1.705-1.838-2.557-2.755v.928c0,1.25-.029,1.509.7,1.655v.074H36.637v-.074c.68-.07.656-.535.656-1.68v-.757c0-.5-.083-.7-.722-.842v-.076H37.4Z" transform="translate(-1.865 -49.831)" fill="#fff"/>
      <path id="パス_415" data-name="パス 415" d="M44.909,50.023V50.1c-.461.05-.491.332-.511,1l-.031,1.1a1.224,1.224,0,0,1-1.412,1.311c-1.564,0-1.4-1.129-1.4-1.533v-1.13c-.016-.519-.022-.671-.627-.751v-.075h1.741V50.1c-.66.1-.671.2-.671.751v1.035a1.17,1.17,0,0,0,1.221,1.4c1.088,0,.983-1.041.983-1.654V51.1c0-.641-.05-.933-.757-1v-.075Z" transform="translate(-2.012 -49.831)" fill="#fff"/>
      <path id="パス_416" data-name="パス 416" d="M49.07,52.717l.914-2.009c.126-.277.2-.529.084-.6l.012-.08h1.109V50.1c-.324.066-.519.186-.5.538l.112,1.838c.055.7.055.813.594.9v.074H49.736v-.074c.387-.06.636-.105.61-.551l-.135-2.2H50.2l-1.287,2.829h-.055l-1.2-2.714h-.009c-.081.773-.122,1.333-.157,2.114-.009.2,0,.423.606.526v.074H46.695v-.074c.448-.077.493-.294.565-.7l.186-1.416.065-.687c.031-.332-.258-.449-.555-.474v-.075h1.09l0,.055c-.111.116.027.418.062.5Z" transform="translate(-2.207 -49.831)" fill="#fff"/>
      <path id="パス_417" data-name="パス 417" d="M55.773,50.023V50.1c-.46.05-.491.332-.51,1l-.032,1.1a1.224,1.224,0,0,1-1.411,1.311c-1.565,0-1.4-1.129-1.4-1.533v-1.13c-.014-.519-.02-.671-.624-.751v-.075h1.739V50.1c-.661.1-.671.2-.671.751v1.035a1.17,1.17,0,0,0,1.221,1.4c1.091,0,.985-1.041.985-1.654V51.1c0-.641-.05-.933-.758-1v-.075Z" transform="translate(-2.38 -49.831)" fill="#fff"/>
      <path id="パス_418" data-name="パス 418" d="M58.2,50.909h-.081c-.081-.409-.212-.8-.711-.8a.559.559,0,0,0-.589.555c0,.872,1.587.843,1.587,1.862a1.112,1.112,0,0,1-1.225.988,1.66,1.66,0,0,1-.887-.258l-.147-.856h.09a1.136,1.136,0,0,0,1.019.962.6.6,0,0,0,.666-.614c0-.9-1.544-.816-1.544-1.827a1.066,1.066,0,0,1,1.127-.962,1.567,1.567,0,0,1,.735.2Z" transform="translate(-2.527 -49.828)" fill="#fff"/>
      <path id="パス_419" data-name="パス 419" d="M58.9,53.377c.606-.08.611-.232.624-.751V50.849c-.014-.518-.018-.671-.624-.751v-.076h2.708l-.06.778h-.076c-.035-.651-.5-.655-1.015-.655h-.489v1.437H60.5c.379,0,.665-.029.721-.464h.074v1.124h-.074c-.067-.443-.342-.448-.721-.448h-.527v.828c0,.3-.069.711.758.711a.94.94,0,0,0,1.073-.878h.076a3.208,3.208,0,0,1-.171,1H58.9Z" transform="translate(-2.62 -49.831)" fill="#fff"/>
      <path id="パス_420" data-name="パス 420" d="M66.324,50.023V50.1c-.458.05-.487.332-.509,1l-.029,1.1a1.227,1.227,0,0,1-1.413,1.311c-1.563,0-1.4-1.129-1.4-1.533v-1.13c-.014-.519-.021-.671-.626-.751v-.075h1.741V50.1c-.661.1-.67.2-.67.751v1.035a1.169,1.169,0,0,0,1.218,1.4c1.09,0,.984-1.041.984-1.654V51.1c0-.641-.05-.933-.756-1v-.075Z" transform="translate(-2.737 -49.831)" fill="#fff"/>
      <path id="パス_421" data-name="パス 421" d="M69.025,52.717l.913-2.009c.126-.277.2-.529.086-.6l.009-.08h1.11V50.1c-.323.066-.521.186-.5.538l.113,1.838c.054.7.054.813.6.9v.074H69.69v-.074c.389-.06.638-.105.612-.551l-.136-2.2h-.011l-1.287,2.829h-.054l-1.2-2.714h-.01c-.08.773-.123,1.333-.157,2.114-.009.2-.006.423.6.526v.074h-1.4v-.074c.447-.077.492-.294.563-.7L67.4,51.26l.066-.687c.03-.332-.257-.449-.555-.474v-.075H68l0,.055c-.11.116.025.418.06.5Z" transform="translate(-2.882 -49.831)" fill="#fff"/>
    </g>
  </g>
</svg>
