<svg xmlns="http://www.w3.org/2000/svg" width="72.34" height="52.357"><g fill="#fff"><path data-name="長方形 4071" d="M1.939 28.777h4.944v12.882H1.939z"/><path data-name="長方形 4072" d="M14.642 28.776h4.945v12.882h-4.945z"/><path data-name="長方形 4073" d="M27.346 28.776h4.945v12.882h-4.945z"/><path data-name="長方形 4074" d="M40.05 28.776h4.945v12.882H40.05z"/><path data-name="長方形 4075" d="M52.756 28.776h4.946v12.882h-4.946z"/><path data-name="長方形 4076" d="M65.462 28.777h4.945v12.882h-4.945z"/><path data-name="中マド 1" d="M58.997 25.6h-5.023l-13.477-7.452V25.6h-2.5v-8.835l-1.826-1.008-1.823 1.008V25.6h-2.5v-7.452L18.371 25.6h-5.024L33.66 14.369 30.467 12.6l-23.506 13H1.938l26.016-14.383-3.193-1.766 1.168-2.132 4.538 2.509 3.192-1.765-6.248-3.452L28.58 2.48l3.265 1.8V.5h2.5v5.169l1.823 1.006 1.825-1.008V.5h2.5v3.784l3.267-1.8 1.167 2.131-6.243 3.448 3.192 1.765 4.54-2.509 1.166 2.132-3.193 1.766 26.013 14.376h-5.02L41.877 12.6l-3.193 1.769L58.997 25.6ZM36.171 9.452l-3.192 1.764 3.192 1.764 3.192-1.764Z" stroke="rgba(0,0,0,0)" stroke-miterlimit="10"/><g data-name="グループ 869"><path data-name="パス 404" d="m5.261 51.467-.023-1.839c-.007-.48-.138-.622-.708-.722v-.076h1.377v.077c-.348.044-.414.236-.454.564a26.8 26.8 0 0 0-.02 2.87l-.066.015c-.808-.954-1.7-1.838-2.558-2.755v.928c0 1.25-.028 1.509.7 1.655v.074H2.003v-.074c.681-.07.655-.535.655-1.68v-.757c0-.5-.08-.7-.72-.842v-.076h.831Z"/><path data-name="パス 405" d="M6.984 50.822a4.845 4.845 0 0 0-.309 1.02c0 .307.349.307.575.343v.074H5.87v-.074c.445-.122.493-.223.649-.615l.571-1.487.3-.822c.044-.131.11-.253.055-.349a.938.938 0 0 0 .368-.273l1.113 2.955c.135.367.22.513.625.59v.074H8.068v-.074c.177-.042.387-.1.387-.323a4.709 4.709 0 0 0-.322-1.041Zm.558-1.543-.473 1.312h1Z"/><path data-name="パス 406" d="M12.444 48.673h.041l.071.945-.071.016c-.178-.627-.455-.651-1.035-.651h-.3v2.33c0 .625.03.792.706.872v.074h-1.86v-.074c.676-.08.706-.247.706-.872v-2.33h-.3c-.58 0-.856.024-1.033.651l-.073-.021.071-.945h.04l.051.045a.322.322 0 0 0 .312.113h2.311a.321.321 0 0 0 .311-.113Z"/><path data-name="パス 407" d="M13.872 51.434c.015.52.02.671.626.751v.074h-1.7v-.074c.607-.08.612-.231.627-.751v-1.777c-.015-.519-.02-.671-.627-.751v-.075h1.7v.076c-.606.08-.611.232-.626.751Z"/><path data-name="パス 408" d="M18.625 50.546a1.726 1.726 0 0 1-1.844 1.775 1.777 1.777 0 1 1-.007-3.552 1.7 1.7 0 0 1 1.851 1.777m-3.107-.128c0 .783.415 1.782 1.323 1.782.832 0 1.2-.847 1.2-1.569-.014-.892-.533-1.74-1.305-1.74-.868 0-1.216.848-1.216 1.527"/><path data-name="パス 409" d="m22.306 51.467-.026-1.839c0-.48-.136-.622-.706-.722v-.076h1.377v.077c-.347.044-.413.236-.453.564a27.547 27.547 0 0 0-.021 2.87l-.065.015c-.807-.954-1.706-1.838-2.558-2.755v.928c0 1.25-.029 1.509.7 1.655v.074h-1.508v-.074c.682-.07.657-.535.657-1.68v-.757c0-.5-.08-.7-.722-.842v-.076h.832Z"/><path data-name="パス 410" d="M24.026 50.822a4.832 4.832 0 0 0-.306 1.02c0 .307.347.307.574.343v.074h-1.382v-.074c.448-.122.494-.223.65-.615l.57-1.487.3-.822c.044-.131.11-.253.055-.349a.938.938 0 0 0 .368-.273l1.109 2.956c.136.367.223.513.625.59v.074h-1.478v-.074c.177-.042.387-.1.387-.323a4.578 4.578 0 0 0-.324-1.041Zm.56-1.543-.474 1.312h1Z"/><path data-name="パス 411" d="M26.624 52.184c.6-.08.61-.232.625-.751v-1.777c-.015-.518-.021-.671-.625-.751v-.076h1.7v.078c-.6.08-.626.233-.626.751v1.656a2.536 2.536 0 0 0 .076.76l.615.046c.766.056.894-.182 1.282-.828l.065.031-.287.938h-2.825Z"/><path data-name="パス 412" d="M32.103 50.822a4.841 4.841 0 0 0-.308 1.02c0 .307.347.307.575.343v.074h-1.382v-.074c.449-.122.495-.223.65-.615l.569-1.487.3-.822c.045-.131.112-.253.057-.349a.942.942 0 0 0 .367-.273l1.11 2.956c.135.367.221.513.624.59v.074h-1.478v-.074c.177-.042.388-.1.388-.323a4.762 4.762 0 0 0-.322-1.041Zm.559-1.543-.474 1.312h1Z"/><path data-name="パス 413" d="M35.777 51.434c.014.52.02.671.625.751v.074h-1.695v-.074c.606-.08.61-.231.626-.751v-1.777c-.016-.519-.02-.671-.626-.751v-.075h1.695v.076c-.6.08-.611.232-.625.751Z"/><path data-name="パス 414" d="m39.973 51.467-.025-1.839c-.006-.48-.137-.622-.708-.722v-.076h1.38v.077c-.35.044-.415.236-.456.564a27.376 27.376 0 0 0-.019 2.87l-.072.015c-.807-.954-1.705-1.838-2.557-2.755v.928c0 1.25-.029 1.509.7 1.655v.074H36.71v-.074c.68-.07.656-.535.656-1.68v-.757c0-.5-.083-.7-.722-.842v-.076h.829Z"/><path data-name="パス 415" d="M44.835 48.83v.077c-.461.05-.491.332-.511 1l-.031 1.1a1.224 1.224 0 0 1-1.412 1.311c-1.564 0-1.4-1.129-1.4-1.533v-1.13c-.016-.519-.022-.671-.627-.751v-.075h1.741v.078c-.66.1-.671.2-.671.751v1.035a1.17 1.17 0 0 0 1.221 1.4c1.088 0 .983-1.041.983-1.654v-.532c0-.641-.05-.933-.757-1v-.075Z"/><path data-name="パス 416" d="m48.801 51.524.914-2.009c.126-.277.2-.529.084-.6l.012-.08h1.109v.072c-.324.066-.519.186-.5.538l.112 1.838c.055.7.055.813.594.9v.074h-1.659v-.074c.387-.06.636-.105.61-.551l-.135-2.2h-.011l-1.287 2.829h-.055l-1.2-2.714h-.009a32.245 32.245 0 0 0-.157 2.114c-.009.2 0 .423.606.526v.074h-1.403v-.074c.448-.077.493-.294.565-.7l.186-1.416.065-.687c.031-.332-.258-.449-.555-.474v-.075h1.09v.055c-.111.116.027.418.062.5Z"/><path data-name="パス 417" d="M55.331 48.83v.077c-.46.05-.491.332-.51 1l-.032 1.1a1.224 1.224 0 0 1-1.411 1.311c-1.565 0-1.4-1.129-1.4-1.533v-1.13c-.014-.519-.02-.671-.624-.751v-.075h1.739v.078c-.661.1-.671.2-.671.751v1.035a1.17 1.17 0 0 0 1.221 1.4c1.091 0 .985-1.041.985-1.654v-.532c0-.641-.05-.933-.758-1v-.075Z"/><path data-name="パス 418" d="M57.611 49.719h-.081c-.081-.409-.212-.8-.711-.8a.559.559 0 0 0-.589.555c0 .872 1.587.843 1.587 1.862a1.112 1.112 0 0 1-1.225.988 1.66 1.66 0 0 1-.887-.258l-.147-.856h.09a1.136 1.136 0 0 0 1.019.962.6.6 0 0 0 .666-.614c0-.9-1.544-.816-1.544-1.827a1.066 1.066 0 0 1 1.127-.962 1.567 1.567 0 0 1 .735.2Z"/><path data-name="パス 419" d="M58.218 52.184c.606-.08.611-.232.624-.751v-1.777c-.014-.518-.018-.671-.624-.751v-.076h2.708l-.06.778h-.076c-.035-.651-.5-.655-1.015-.655h-.489v1.437h.532c.379 0 .665-.029.721-.464h.074v1.124h-.074c-.067-.443-.342-.448-.721-.448h-.527v.828c0 .3-.069.711.758.711a.94.94 0 0 0 1.073-.878h.076a3.208 3.208 0 0 1-.171 1h-2.809Z"/><path data-name="パス 420" d="M65.525 48.83v.077c-.458.05-.487.332-.509 1l-.029 1.1a1.227 1.227 0 0 1-1.413 1.311c-1.563 0-1.4-1.129-1.4-1.533v-1.13c-.014-.519-.021-.671-.626-.751v-.075h1.741v.078c-.661.1-.67.2-.67.751v1.035a1.169 1.169 0 0 0 1.218 1.4c1.09 0 .984-1.041.984-1.654v-.532c0-.641-.05-.933-.756-1v-.075Z"/><path data-name="パス 421" d="m68.081 51.524.913-2.009c.126-.277.2-.529.086-.6l.009-.08h1.11v.072c-.323.066-.521.186-.5.538l.113 1.838c.054.7.054.813.6.9v.074h-1.666v-.074c.389-.06.638-.105.612-.551l-.136-2.2h-.011l-1.287 2.829h-.054l-1.2-2.714h-.01c-.08.773-.123 1.333-.157 2.114-.009.2-.006.423.6.526v.074h-1.4v-.074c.447-.077.492-.294.563-.7l.19-1.42.066-.687c.03-.332-.257-.449-.555-.474v-.075h1.089v.055c-.11.116.025.418.06.5Z"/></g></g></svg>